/* XPM */
static char *ecb479ae3cb745748fb8961eead7a33d9T4reFOEVlJOgTFS[] = {
/* columns rows colors chars-per-pixel */
"64 64 18 1 ",
"  c black",
". c #000100",
"X c #67340E",
"o c #111173",
"O c #10107C",
"+ c #9A0A0A",
"@ c #AD0808",
"# c #CC966F",
"$ c #131389",
"% c #15158F",
"& c #191988",
"* c #A39393",
"= c #F2B990",
"- c #F5BE96",
"; c #C2BDBD",
": c #E2DCDC",
"> c #F3EBEB",
", c #F9EDED",
/* pixels */
"                                                                ",
"                                                                ",
"                                                                ",
"                                                                ",
"                                                                ",
"                                                                ",
"                                                                ",
"                                                                ",
"                                                                ",
"                                                                ",
"                                                                ",
"                                                                ",
"                                                                ",
"                             XXXXXX                             ",
"                            XXXXXXXX                            ",
"                            X------X                            ",
"                            X->-->-X                            ",
"                            -- -- --                            ",
"                            --------                            ",
"                            ---@@---                            ",
"                             ------                             ",
"                              ####                              ",
"                         @@@@@@##@@@@@                          ",
"                       @@@@@@@@@@@@@@@@                         ",
"                      @@@@@@@@@@@@@@@@@                         ",
"                     @@@@@@@@@@@@@@@@@@@                        ",
"                     @@@@@@@@@@@@@@@@@@@@     -                 ",
"                    @@@@ @@@@@@@@@@@@@@@@     -                 ",
"                    @@@  @@@@@@@@@@@@@@@@@@   -=-               ",
"                    @@@   @@@@@@@@@@@@@@@@@@@@-==               ",
"                    @@    @@@@@@@@@@@@  @@@@@@-=#               ",
"                    @@    @@@@@@@@@@@@   @@@@@                  ",
"                   @@@    @@@@@@@@@@@@     @@                   ",
"                   @@@    @@@@@@@@@@@@                          ",
"                   @@@    @@+@@@@@@+@@                          ",
"                   @@@    @@@+@@@@+@@@                          ",
"                   ---    @@@+@@@@+@@@                          ",
"                   =-#    @@+@@@@@@+@@                          ",
"                   ##=    @@@@@@@@@@@@                          ",
"                          @@@@@@@@@@@@                          ",
"                          @@@@@@@@@@@@                          ",
"                          %%o%%o%%%o%%                          ",
"                          %o%%%$$%%%o%                          ",
"                          o%%%%$o%%%%o                          ",
"                          %%%%%%$%%%%%                          ",
"                          %%%%%%$%%%%%                          ",
"                          %%%%%  %%%%%                          ",
"                          %%%%%  %%%%%                          ",
"                          %%%%%  %%%%%                          ",
"                          %%%%%  %%%%%                          ",
"                          %%%&%  %%%%%                          ",
"                          %%%&%  %%%%%                          ",
"                          %%%&%  %%%%%                          ",
"                          %%%O%  %%O%%                          ",
"                          %%&O%  %%O%%                          ",
"                          %%&O%  OO%O%                          ",
"                          &%&O%  %O%O%                          ",
"                          %&%O%  %O%O%                          ",
"                          %OOO%  %%OO%                          ",
"                          %&O&%  %%O%O                          ",
"                          %&OO&  %%O%O                          ",
"                          %;,,%  %,,,O                          ",
"                          ,;*;,  ,*;*,                          ",
"                          ,::::  :::::                          "
};
